<svg width="16" height="16" viewBox="0 0 16 16" fill="none" xmlns="http://www.w3.org/2000/svg">
<path d="M2.66658 10.6663V2.66634H1.33325V1.33301H3.33325C3.51006 1.33301 3.67963 1.40325 3.80466 1.52827C3.92968 1.65329 3.99992 1.82286 3.99992 1.99967V9.99967H12.2919L13.6252 4.66634H5.33325V3.33301H14.4799C14.5813 3.33301 14.6813 3.35611 14.7723 3.40057C14.8634 3.44502 14.9431 3.50964 15.0055 3.58953C15.0678 3.66942 15.1111 3.76247 15.1321 3.86161C15.1531 3.96075 15.1512 4.06337 15.1266 4.16167L13.4599 10.8283C13.4238 10.9725 13.3405 11.1005 13.2234 11.1919C13.1062 11.2833 12.9619 11.333 12.8132 11.333H3.33325C3.15644 11.333 2.98687 11.2628 2.86185 11.1377C2.73682 11.0127 2.66658 10.8432 2.66658 10.6663ZM3.99992 15.333C3.6463 15.333 3.30716 15.1925 3.05711 14.9425C2.80706 14.6924 2.66658 14.3533 2.66658 13.9997C2.66658 13.6461 2.80706 13.3069 3.05711 13.0569C3.30716 12.8068 3.6463 12.6663 3.99992 12.6663C4.35354 12.6663 4.69268 12.8068 4.94273 13.0569C5.19277 13.3069 5.33325 13.6461 5.33325 13.9997C5.33325 14.3533 5.19277 14.6924 4.94273 14.9425C4.69268 15.1925 4.35354 15.333 3.99992 15.333ZM11.9999 15.333C11.6463 15.333 11.3072 15.1925 11.0571 14.9425C10.8071 14.6924 10.6666 14.3533 10.6666 13.9997C10.6666 13.6461 10.8071 13.3069 11.0571 13.0569C11.3072 12.8068 11.6463 12.6663 11.9999 12.6663C12.3535 12.6663 12.6927 12.8068 12.9427 13.0569C13.1928 13.3069 13.3332 13.6461 13.3332 13.9997C13.3332 14.3533 13.1928 14.6924 12.9427 14.9425C12.6927 15.1925 12.3535 15.333 11.9999 15.333Z" fill="white"/>
</svg>
