<svg width="68" height="60" viewBox="0 0 68 60" fill="none" xmlns="http://www.w3.org/2000/svg">
<path d="M0.598951 29.8631L5.74701 28.0319L27.8667 28.0319L27.8667 31.6588L5.74701 31.6588L0.598951 29.8631Z" fill="#BB9930"/>
<path d="M29.4733 31.7121L34.4313 31.7121L34.4313 36.9213C34.4313 36.9213 36.1589 36.5123 36.1589 35.4456C36.1589 34.3789 36.1589 31.9966 36.1589 31.9966L39.4412 31.9966L39.4412 33.7033L40.996 33.7033L40.996 25.9874L39.4412 25.9874L39.4412 27.6941L36.1589 27.6941C36.1589 27.6941 36.1589 25.3118 36.1589 24.245C36.1589 23.1783 34.4313 22.7694 34.4313 22.7694L34.4313 27.9786L29.4733 27.9786L29.4733 31.7121Z" fill="#BB9930"/>
<path d="M42.6026 31.9788L42.6026 33.7033L44.1573 33.7033L44.1573 25.9874L42.6026 25.9874L42.6026 27.7119L42.6026 31.9788Z" fill="#BB9930"/>
<path d="M22.6163 15C25.5599 12.0333 29.3103 10.0129 33.3932 9.1944C37.476 8.37588 41.7081 8.79598 45.554 10.4016C49.4 12.0071 52.6873 14.7261 55 18.2146C57.3128 21.7031 58.5472 25.8044 58.5472 30C58.5472 34.1956 57.3128 38.2969 55 41.7854C52.6873 45.2739 49.4 47.9929 45.554 49.5984C41.7081 51.204 37.476 51.6241 33.3932 50.8056C29.3103 49.9871 25.5599 47.9667 22.6163 45L24.1046 43.5C26.7539 46.17 30.1292 47.9884 33.8038 48.725C37.4784 49.4617 41.2872 49.0836 44.7486 47.6386C48.21 46.1936 51.1685 43.7465 53.25 40.6069C55.3314 37.4672 56.4424 33.776 56.4424 30C56.4424 26.224 55.3315 22.5328 53.25 19.3931C51.1685 16.2535 48.21 13.8064 44.7486 12.3614C41.2872 10.9164 37.4784 10.5383 33.8038 11.275C30.1292 12.0116 26.7539 13.83 24.1046 16.5L22.6163 15Z" fill="#BB9930"/>
</svg>
