<svg width="67" height="60" viewBox="0 0 67 60" fill="none" xmlns="http://www.w3.org/2000/svg">
<path d="M66.9322 30.1369L61.7841 31.9681L39.6644 31.9681L39.6644 28.3412L61.7841 28.3412L66.9322 30.1369Z" fill="#BB9930"/>
<path d="M38.0578 28.2879L33.0998 28.2879L33.0998 23.0787C33.0998 23.0787 31.3723 23.4877 31.3723 24.5544C31.3723 25.6211 31.3723 28.0035 31.3723 28.0035L28.0899 28.0034L28.0899 26.2967L26.5352 26.2967L26.5352 34.0126L28.0899 34.0126L28.0899 32.3059L31.3723 32.3059C31.3723 32.3059 31.3723 34.6882 31.3723 35.755C31.3723 36.8217 33.0998 37.2306 33.0998 37.2306L33.0998 32.0214L38.0578 32.0214L38.0578 28.2879Z" fill="#BB9930"/>
<path d="M24.9286 28.0212L24.9286 26.2967L23.3738 26.2967L23.3738 34.0126L24.9286 34.0126L24.9286 32.2881L24.9286 28.0212Z" fill="#BB9930"/>
<path d="M44.9148 45C41.9712 47.9667 38.2208 49.9871 34.138 50.8056C30.0551 51.6241 25.8231 51.204 21.9771 49.5984C18.1311 47.9929 14.8439 45.2739 12.5311 41.7854C10.2183 38.2969 8.9839 34.1956 8.98391 30C8.98391 25.8044 10.2183 21.7031 12.5311 18.2146C14.8439 14.7261 18.1311 12.0071 21.9771 10.4016C25.8231 8.79598 30.0551 8.37588 34.138 9.1944C38.2208 10.0129 41.9712 12.0333 44.9148 15L43.4265 16.5C40.7773 13.83 37.4019 12.0116 33.7273 11.275C30.0528 10.5383 26.2439 10.9164 22.7825 12.3614C19.3212 13.8064 16.3627 16.2535 14.2812 19.3931C12.1997 22.5328 11.0887 26.224 11.0887 30C11.0887 33.776 12.1997 37.4672 14.2812 40.6069C16.3627 43.7465 19.3212 46.1936 22.7825 47.6386C26.2439 49.0836 30.0527 49.4617 33.7273 48.725C37.4019 47.9884 40.7773 46.17 43.4265 43.5L44.9148 45Z" fill="#BB9930"/>
</svg>
