<svg width="18" height="22" viewBox="0 0 18 22" fill="none" xmlns="http://www.w3.org/2000/svg">
<path d="M9 21.7282L2.636 15.3642C1.37734 14.1055 0.520187 12.5018 0.172928 10.756C-0.17433 9.01019 0.00390685 7.2006 0.685099 5.55607C1.36629 3.91154 2.51984 2.50594 3.99988 1.51701C5.47992 0.528082 7.21998 0.000244141 9 0.000244141C10.78 0.000244141 12.5201 0.528082 14.0001 1.51701C15.4802 2.50594 16.6337 3.91154 17.3149 5.55607C17.9961 7.2006 18.1743 9.01019 17.8271 10.756C17.4798 12.5018 16.6227 14.1055 15.364 15.3642L9 21.7282ZM13.95 13.9502C14.9289 12.9712 15.5955 11.7239 15.8656 10.366C16.1356 9.00819 15.9969 7.60076 15.4671 6.32172C14.9373 5.04268 14.0401 3.94947 12.8889 3.18033C11.7378 2.4112 10.3844 2.00067 9 2.00067C7.61557 2.00067 6.26222 2.4112 5.11109 3.18033C3.95996 3.94947 3.06275 5.04268 2.53292 6.32172C2.00308 7.60076 1.86442 9.00819 2.13446 10.366C2.40449 11.7239 3.07111 12.9712 4.05 13.9502L9 18.9002L13.95 13.9502ZM9 11.0002C8.46957 11.0002 7.96086 10.7895 7.58579 10.4144C7.21072 10.0393 7 9.5306 7 9.00016C7 8.46973 7.21072 7.96103 7.58579 7.58595C7.96086 7.21088 8.46957 7.00017 9 7.00017C9.53044 7.00017 10.0391 7.21088 10.4142 7.58595C10.7893 7.96103 11 8.46973 11 9.00016C11 9.5306 10.7893 10.0393 10.4142 10.4144C10.0391 10.7895 9.53044 11.0002 9 11.0002Z" fill="#E3E3E3"/>
</svg>
