<svg width="16" height="16" viewBox="0 0 16 16" fill="none" xmlns="http://www.w3.org/2000/svg">
<path fill-rule="evenodd" clip-rule="evenodd" d="M8.00008 2.00033C4.68637 2.00033 2.00008 4.68662 2.00008 8.00033C2.00008 11.314 4.68637 14.0003 8.00008 14.0003C11.3138 14.0003 14.0001 11.314 14.0001 8.00033C14.0001 4.68662 11.3138 2.00033 8.00008 2.00033ZM0.666748 8.00033C0.666748 3.95024 3.94999 0.666992 8.00008 0.666992C12.0502 0.666992 15.3334 3.95024 15.3334 8.00033C15.3334 12.0504 12.0502 15.3337 8.00008 15.3337C3.94999 15.3337 0.666748 12.0504 0.666748 8.00033Z" fill="#8F8B8A"/>
<path fill-rule="evenodd" clip-rule="evenodd" d="M8.17199 5.3496C7.86165 5.29637 7.54247 5.35469 7.27101 5.51423C6.99954 5.67378 6.7933 5.92425 6.6888 6.22128C6.56662 6.56861 6.18601 6.75113 5.83869 6.62895C5.49136 6.50676 5.30884 6.12615 5.43103 5.77883C5.64001 5.18475 6.05249 4.68381 6.59543 4.36472C7.13836 4.04563 7.77671 3.92899 8.3974 4.03546C9.0181 4.14193 9.58108 4.46463 9.98665 4.94641C10.3921 5.42809 10.6141 6.03771 10.6132 6.66733C10.6129 7.68757 9.85654 8.36132 9.31638 8.72142C9.02596 8.91504 8.74028 9.0574 8.52984 9.15093C8.42367 9.19812 8.33427 9.23392 8.26985 9.25846C8.23758 9.27076 8.21142 9.28028 8.19238 9.28705L8.16923 9.29516L8.16185 9.29768L8.15926 9.29856L8.15823 9.2989C8.15803 9.29896 8.1574 9.29918 7.94658 8.66672L8.1574 9.29918C7.8081 9.41561 7.43056 9.22684 7.31413 8.87754C7.19777 8.52848 7.38622 8.1512 7.73507 8.0345L7.73421 8.03479C7.73428 8.03476 7.73434 8.03475 7.73507 8.0345L7.7457 8.03077C7.75596 8.02712 7.77277 8.02102 7.79519 8.01248C7.84014 7.99535 7.90699 7.96866 7.98832 7.93251C8.15288 7.85938 8.3672 7.75174 8.57678 7.61202C9.03651 7.30553 9.27991 6.97948 9.27991 6.66672L9.27992 6.66573C9.28038 6.35085 9.1694 6.04597 8.96662 5.80507C8.76383 5.56418 8.48234 5.40283 8.17199 5.3496Z" fill="#8F8B8A"/>
<path fill-rule="evenodd" clip-rule="evenodd" d="M7.33325 11.3337C7.33325 10.9655 7.63173 10.667 7.99992 10.667H8.00659C8.37477 10.667 8.67325 10.9655 8.67325 11.3337C8.67325 11.7018 8.37477 12.0003 8.00659 12.0003H7.99992C7.63173 12.0003 7.33325 11.7018 7.33325 11.3337Z" fill="#8F8B8A"/>
</svg>
