<svg width="18" height="11" viewBox="0 0 18 11" fill="none" xmlns="http://www.w3.org/2000/svg">
<path fill-rule="evenodd" clip-rule="evenodd" d="M9.83686 10.2508C9.83686 10.2508 10.1449 10.2172 10.3026 10.0509C10.4471 9.89846 10.442 9.61086 10.442 9.61086C10.442 9.61086 10.4228 8.26791 11.0581 8.06962C11.6841 7.87461 12.488 9.36832 13.3411 9.9427C13.9855 10.377 14.4746 10.2819 14.4746 10.2819L16.7543 10.2508C16.7543 10.2508 17.9463 10.1787 17.3812 9.25853C17.3344 9.18315 17.0514 8.57763 15.6867 7.33383C14.2568 6.03185 14.4488 6.24243 16.17 3.98998C17.2184 2.61836 17.6374 1.78096 17.5064 1.4229C17.382 1.0804 16.6107 1.17135 16.6107 1.17135L14.0447 1.18692C14.0447 1.18692 13.8544 1.16152 13.7134 1.24428C13.5756 1.32539 13.4863 1.51467 13.4863 1.51467C13.4863 1.51467 13.0806 2.57575 12.5389 3.4787C11.3961 5.38291 10.9395 5.48369 10.7526 5.3657C10.3177 5.08958 10.4262 4.25792 10.4262 3.66715C10.4262 1.82111 10.7117 1.05173 9.87109 0.852618C9.59229 0.786249 9.38694 0.742823 8.67325 0.735449C7.75755 0.726435 6.98291 0.738726 6.54385 0.949304C6.25169 1.08942 6.02631 1.40242 6.16404 1.42044C6.33349 1.44256 6.71747 1.52204 6.92114 1.79407C7.18409 2.14558 7.1749 2.93382 7.1749 2.93382C7.1749 2.93382 7.32599 5.10678 6.82181 5.37636C6.47623 5.56153 6.00211 5.1838 4.9829 3.45575C4.46119 2.57084 4.0672 1.59251 4.0672 1.59251C4.0672 1.59251 3.99124 1.40979 3.85518 1.31147C3.69073 1.19266 3.46118 1.15578 3.46118 1.15578L1.02293 1.17135C1.02293 1.17135 0.656486 1.18119 0.522094 1.33768C0.402728 1.47616 0.512912 1.76376 0.512912 1.76376C0.512912 1.76376 2.42194 6.1482 4.5839 8.35804C6.56638 10.3835 8.81682 10.2508 8.81682 10.2508H9.83686Z" fill="white"/>
</svg>
